<svg xmlns="http://www.w3.org/2000/svg" xmlns:xlink="http://www.w3.org/1999/xlink" width="56" height="56" viewBox="0 0 56 56">
  <defs>
    <filter id="Ellipse_200" x="0" y="0" width="56" height="56" filterUnits="userSpaceOnUse">
      <feOffset dy="3" input="SourceAlpha"/>
      <feGaussianBlur stdDeviation="3" result="blur"/>
      <feFlood flood-opacity="0.161"/>
      <feComposite operator="in" in2="blur"/>
      <feComposite in="SourceGraphic"/>
    </filter>
    <filter id="Icon_ionic-md-moon" x="5" y="5" width="46.835" height="46.835" filterUnits="userSpaceOnUse">
      <feOffset dy="3" input="SourceAlpha"/>
      <feGaussianBlur stdDeviation="3" result="blur-2"/>
      <feFlood flood-opacity="0.161"/>
      <feComposite operator="in" in2="blur-2"/>
      <feComposite in="SourceGraphic"/>
    </filter>
  </defs>
  <g id="Group_955" data-name="Group 955" transform="translate(-234 -198)">
    <g id="Group_954" data-name="Group 954">
      <g transform="matrix(1, 0, 0, 1, 234, 198)" filter="url(#Ellipse_200)">
        <circle id="Ellipse_200-2" data-name="Ellipse 200" cx="19" cy="19" r="19" transform="translate(47 44) rotate(180)" fill="#75b67c"/>
      </g>
      <g transform="matrix(1, 0, 0, 1, 234, 198)" filter="url(#Icon_ionic-md-moon)">
        <path id="Icon_ionic-md-moon-2" data-name="Icon ionic-md-moon" d="M13.711,8.789a13.385,13.385,0,0,1,1.048-5.21A14.624,14.624,0,1,0,32.421,21.241a13.411,13.411,0,0,1-5.21,1.048A13.5,13.5,0,0,1,13.711,8.789Z" transform="translate(10.41 7.42)" fill="#fff"/>
      </g>
    </g>
  </g>
</svg>
