<svg xmlns="http://www.w3.org/2000/svg" xmlns:xlink="http://www.w3.org/1999/xlink" width="56" height="56" viewBox="0 0 56 56">
  <defs>
    <filter id="Ellipse_202" x="0" y="0" width="56" height="56" filterUnits="userSpaceOnUse">
      <feOffset dy="3" input="SourceAlpha"/>
      <feGaussianBlur stdDeviation="3" result="blur"/>
      <feFlood flood-opacity="0.161"/>
      <feComposite operator="in" in2="blur"/>
      <feComposite in="SourceGraphic"/>
    </filter>
  </defs>
  <g id="Group_975" data-name="Group 975" transform="translate(-42 -240)">
    <g id="Group_974" data-name="Group 974">
      <g transform="matrix(1, 0, 0, 1, 42, 240)" filter="url(#Ellipse_202)">
        <circle id="Ellipse_202-2" data-name="Ellipse 202" cx="19" cy="19" r="19" transform="translate(47 44) rotate(180)" fill="#75b67c"/>
      </g>
      <path id="Icon_awesome-shoe-prints" data-name="Icon awesome-shoe-prints" d="M8.817,7.348h1.47V1.47H8.817a2.939,2.939,0,0,0,0,5.878ZM0,19.1a2.939,2.939,0,0,0,2.939,2.939h1.47V16.165H2.939A2.939,2.939,0,0,0,0,19.1Zm15.5-5.878a9.392,9.392,0,0,0-4.81,1.47,7.018,7.018,0,0,1-4.81,1.47v5.878l2.642.733a18.767,18.767,0,0,0,3.688.691,15.975,15.975,0,0,0,4.481-.285c5.028-1.08,6.823-3.472,6.823-5.549,0-2.939-3.866-4.409-8.016-4.409ZM22.568.33A15.958,15.958,0,0,0,18.087.046,18.8,18.8,0,0,0,14.4.736l-2.642.733V7.348a7.019,7.019,0,0,1,4.81,1.47,9.392,9.392,0,0,0,4.81,1.47c4.15,0,8.016-1.47,8.016-4.409,0-2.077-1.8-4.468-6.823-5.548Z" transform="translate(58 279.391) rotate(-90)" fill="#fff"/>
    </g>
  </g>
</svg>
