<svg xmlns="http://www.w3.org/2000/svg" xmlns:xlink="http://www.w3.org/1999/xlink" width="56" height="56" viewBox="0 0 56 56">
  <defs>
    <filter id="Ellipse_148" x="0" y="0" width="56" height="56" filterUnits="userSpaceOnUse">
      <feOffset dy="3" input="SourceAlpha"/>
      <feGaussianBlur stdDeviation="3" result="blur"/>
      <feFlood flood-opacity="0.161"/>
      <feComposite operator="in" in2="blur"/>
      <feComposite in="SourceGraphic"/>
    </filter>
  </defs>
  <g id="Group_973" data-name="Group 973" transform="translate(-138 -240)">
    <g id="Group_972" data-name="Group 972">
      <g transform="matrix(1, 0, 0, 1, 138, 240)" filter="url(#Ellipse_148)">
        <circle id="Ellipse_148-2" data-name="Ellipse 148" cx="19" cy="19" r="19" transform="translate(47 44) rotate(180)" fill="#75b67c"/>
      </g>
      <path id="Icon_metro-fire" data-name="Icon metro-fire" d="M12.241,32.777c-2.056-4.278-.961-6.729.619-9.039A14.4,14.4,0,0,0,15.037,18.7a5.913,5.913,0,0,1,.816,4.534,11.443,11.443,0,0,0,2.494-8.57c5.432,3.8,7.754,12.016,4.625,18.107,16.64-9.415,4.139-23.5,1.963-25.09.725,1.587.863,4.273-.6,5.577C21.851,3.856,15.717,1.928,15.717,1.928c.725,4.852-2.63,10.157-5.865,14.121A10.485,10.485,0,0,0,8.6,10.928c-.228,3.514-2.914,6.379-3.641,9.9C3.973,25.6,5.7,29.088,12.241,32.777Z" transform="translate(148.299 248.072)" fill="#fff"/>
    </g>
  </g>
</svg>
