<svg xmlns="http://www.w3.org/2000/svg" xmlns:xlink="http://www.w3.org/1999/xlink" width="56" height="56" viewBox="0 0 56 56">
  <defs>
    <filter id="Ellipse_201" x="0" y="0" width="56" height="56" filterUnits="userSpaceOnUse">
      <feOffset dy="3" input="SourceAlpha"/>
      <feGaussianBlur stdDeviation="3" result="blur"/>
      <feFlood flood-opacity="0.161"/>
      <feComposite operator="in" in2="blur"/>
      <feComposite in="SourceGraphic"/>
    </filter>
    <filter id="Path_160" x="5" y="5" width="46.118" height="46.125" filterUnits="userSpaceOnUse">
      <feOffset dy="3" input="SourceAlpha"/>
      <feGaussianBlur stdDeviation="3" result="blur-2"/>
      <feFlood flood-opacity="0.161"/>
      <feComposite operator="in" in2="blur-2"/>
      <feComposite in="SourceGraphic"/>
    </filter>
    <filter id="Path_161" x="12.315" y="12.314" width="26.999" height="26.999" filterUnits="userSpaceOnUse">
      <feOffset dy="3" input="SourceAlpha"/>
      <feGaussianBlur stdDeviation="3" result="blur-3"/>
      <feFlood flood-opacity="0.161"/>
      <feComposite operator="in" in2="blur-3"/>
      <feComposite in="SourceGraphic"/>
    </filter>
  </defs>
  <g id="Group_953" data-name="Group 953" transform="translate(-329 -198)">
    <g id="Group_952" data-name="Group 952">
      <g transform="matrix(1, 0, 0, 1, 329, 198)" filter="url(#Ellipse_201)">
        <circle id="Ellipse_201-2" data-name="Ellipse 201" cx="19" cy="19" r="19" transform="translate(47 44) rotate(180)" fill="#75b67c"/>
      </g>
      <g id="Icon_ionic-ios-timer" data-name="Icon ionic-ios-timer" transform="translate(339.063 205.063)">
        <g transform="matrix(1, 0, 0, 1, -10.06, -7.06)" filter="url(#Path_160)">
          <path id="Path_160-2" data-name="Path 160" d="M18,32.063A14.063,14.063,0,0,1,8.241,7.875,1.129,1.129,0,0,1,9.809,9.5a11.8,11.8,0,1,0,9.316-3.248v4.4a1.132,1.132,0,1,1-2.264,0V5.07a1.131,1.131,0,0,1,1.132-1.132A14.063,14.063,0,0,1,18,32.063Z" transform="translate(10.06 7.06)" fill="#fff"/>
        </g>
        <g transform="matrix(1, 0, 0, 1, -10.06, -7.06)" filter="url(#Path_161)">
          <path id="Path_161-2" data-name="Path 161" d="M12.368,11.384l7,5.027A2.117,2.117,0,0,1,16.9,19.856a2.044,2.044,0,0,1-.492-.492l-5.027-7a.705.705,0,0,1,.984-.984Z" transform="translate(10.06 7.06)" fill="#fff"/>
        </g>
      </g>
    </g>
  </g>
</svg>
